# xmcd CD database file
#
# Track frame offsets:
#	150
#	17467
#	40247
#	65470
#	81523
#	100769
#	125450
#	141505
#	159623
#	184618
#	202640
#	235839
#
# Disc length: 3505 seconds
#
# Revision: 0
# Processed by: cddbd v1.4PL0 Copyright (c) Steve Scherf et al.
# Submitted via: CDex 1.40Release
#
DISCID=990daf0c
DTITLE=Medicine Dream - Tomegan Gospem
DYEAR=2002
DGENRE=Native American
TTITLE0=Tomegan Gospem
TTITLE1=For The Love Of Elders
TTITLE2=Thousands Of Years Of Love
TTITLE3=Time Immemorial
TTITLE4=People Of the Dawn
TTITLE5=Nenuwoq Kesalul
TTITLE6=Missing You
TTITLE7=In This World
TTITLE8=Ktaqmkuk
TTITLE9=Hurtful Stories
TTITLE10=The Ancestor Song
TTITLE11=Petals
EXTD=YEAR: 2002 ID3G: 64
EXTT0=
EXTT1=
EXTT2=
EXTT3=
EXTT4=
EXTT5=
EXTT6=
EXTT7=
EXTT8=
EXTT9=
EXTT10=
EXTT11=
PLAYORDER=
